<?xml version="1.0" encoding="utf-8"?>
<!-- Generator: Adobe Illustrator 16.0.3, SVG Export Plug-In . SVG Version: 6.00 Build 0)  -->
<!DOCTYPE svg PUBLIC "-//W3C//DTD SVG 1.1//EN" "http://www.w3.org/Graphics/SVG/1.1/DTD/svg11.dtd">
<svg version="1.1" id="Capa_1" xmlns="http://www.w3.org/2000/svg" xmlns:xlink="http://www.w3.org/1999/xlink" x="0px" y="0px"
	 width="150.676px" height="49.892px" viewBox="0 0 150.676 49.892" enable-background="new 0 0 150.676 49.892"
	 xml:space="preserve">
<g>
	<g>
		<path fill="none" stroke="#EE6F40" stroke-width="2" stroke-miterlimit="10" d="M20.817,31.196
			c-3.913-0.007-8.499,1.476-8.919-3.182c-0.332-3.693,4.525-7.946,7.859-7.423"/>
		<path fill="none" stroke="#F5EEE2" stroke-width="2" stroke-miterlimit="10" d="M25.06,12.107c-8.014,0-13.549-0.294-18.69,6.245
			c-4.543,5.78-9.741,18.136,0.808,19.208c5.361,0.545,17.937,2.099,20.691-3.208c1.532-2.949,0.58-10.278,0.373-13.643
			c-0.309-4.979-0.536-6.2-5.834-7.543"/>
	</g>
	<path fill="none" stroke="#F5EEE2" stroke-width="2" stroke-miterlimit="10" d="M55.748,16.17
		c1.259-4.952-1.251-10.856-6.094-7.914c-2.604,1.58-4.148,10.476-4.042,13.346c0.127,3.432-0.384,9.693,2.571,12.209
		c2.695,2.293,10.867,2.278,12.613-1.648"/>
	<path fill="none" stroke="#F5EEE2" stroke-width="2" stroke-miterlimit="10" d="M71.798,34.732
		c-0.553-3.944-3.762-15.108,2.164-16.67c1.872-0.491,4.982,1.618,5.677,3.325c0.509,1.252,0.7,4.441-0.534,5.442
		c-2.199,1.783-5.939,0.416-8.468,0.355"/>
	<path fill="none" stroke="#F5EEE2" stroke-width="2" stroke-miterlimit="10" d="M65.325,16.063
		c-7.368-3.036-7.642,16.311-0.801,10.6c2.516-2.101,2.433-7.416,2.089-10.366"/>
	<g>
		<path fill="none" stroke="#F5EEE2" stroke-width="2" stroke-miterlimit="10" d="M83.055,18.787
			c-1.188,4.238,4.846,3.842,5.353,8.029"/>
		<path fill="none" stroke="#F5EEE2" stroke-width="2" stroke-miterlimit="10" d="M94.296,18.252
			C91.032,21.991,86.1,30.58,84.662,35.38"/>
	</g>
	<path fill="none" stroke="#F5EEE2" stroke-width="2" stroke-miterlimit="10" d="M98.423,18.791
		c-0.067,2.377,1.089,4.48,1.549,6.763c0.29,1.438,0.795,2.833,1.107,4.269c0.756-4.174-1.771-12.276,4.918-12.504"/>
	<path fill="none" stroke="#F5EEE2" stroke-width="2" stroke-miterlimit="10" d="M109.401,18.803c0,3.857,0,7.715,0,11.572"/>
	<path fill="none" stroke="#F5EEE2" stroke-width="2" stroke-miterlimit="10" d="M110.454,12.49c-1.154,0-2.482-0.16-3.514,0.2
		c1.004,0.973,4.274,1.493,5.517,0.252c-0.792-0.043-1.617-0.022-2.424-0.03"/>
	<path fill="none" stroke="#F5EEE2" stroke-width="2" stroke-miterlimit="10" d="M123.996,18.785
		c-2.353-0.884-5.965-0.826-7.595,1.379c-1.586,2.144-3.052,6.625-1.067,8.846c2.031,2.273,7.682,2.559,8.914-0.648
		c1.015-2.645-0.801-6.406-0.468-9.282c0.334,4.977,0.354,9.946,0.403,14.933c0.033,3.369,1.362,9.442-0.427,12.523
		c-1.512,2.604-5.855,2.602-8.441,2.091c-3.672-0.727-6.412-4.391-5.837-8.168"/>
	<path fill="none" stroke="#F5EEE2" stroke-width="2" stroke-miterlimit="10" d="M129.577,2.653c0,5.415,0,10.831,0,16.245
		c0,4.164,0.575,9.051-0.094,13.084c-1.79-3.482-0.854-13.701,4.524-13.991c5.322-0.284,4.407,10.08,4.407,13.487"/>
	<path fill="none" stroke="#F5EEE2" stroke-width="2" stroke-miterlimit="10" d="M141.35,0c0,10.763,1.683,21.278,1.683,31.982"/>
	<path fill="none" stroke="#F5EEE2" stroke-width="2" stroke-miterlimit="10" d="M133.564,7.154c1.941,0,3.882,0,5.823,0
		c5.645,0.002,6.056-1.393,10.8,1.263"/>
</g>
</svg>
