<?xml version="1.0" encoding="utf-8"?>
<!-- Generator: Adobe Illustrator 16.0.3, SVG Export Plug-In . SVG Version: 6.00 Build 0)  -->
<!DOCTYPE svg PUBLIC "-//W3C//DTD SVG 1.1//EN" "http://www.w3.org/Graphics/SVG/1.1/DTD/svg11.dtd">
<svg version="1.1" id="Capa_1" xmlns="http://www.w3.org/2000/svg" xmlns:xlink="http://www.w3.org/1999/xlink" x="0px" y="0px"
	 width="86.241px" height="55.203px" viewBox="0 0 86.241 55.203" enable-background="new 0 0 86.241 55.203" xml:space="preserve">
<g>
	<path fill="#F5EEE2" d="M54.415,5.396c-0.121,2.401-0.353,4.229,2.103,5.407c2.297,1.101,5.074,0.933,7.586,0.927
		c4.628-0.012,9.661,1.379,14.362,0.581c1.771-0.301,4.938-2.128,3.02-4.114c-1.336-1.381-5.454-1.655-7.227-1.865
		C69.328,5.75,64.354,5.949,59.4,5.949"/>
	<path fill="#F5EEE2" d="M33.135,25.979c6.663-3.806,9.229-10.508,5.117-17.495c-5.041-8.567-16.486-8.751-25.255-8.288
		c-3.19,0.17-8.278-0.953-11.087,0.818c-1.965,1.24-1.787,3.977-1.795,6.027c-0.016,3.774,0.346,7.548,0.314,11.322
		c-0.066,8.351-1.163,17.668,0.437,25.885c0.464,2.382,0.257,4.895,0.967,7.239c1.071,3.541,3.11,2.556,6.22,2.838
		c2.254,0.205,4.51,0.385,6.77,0.525c5.349,0.334,10.924,0.69,16.231-0.262c9.39-1.683,11.671-10.058,8.977-18.443
		c-0.666-2.077-1.663-4.018-2.983-5.757C35.836,28.79,34.614,27.301,33.135,25.979z M13.149,17.844
		c0.181-1.976-0.378-4.44-0.025-6.499c-0.055,0-0.112,0-0.167,0l0.577-1.35c-0.198,0.421-0.329,0.875-0.41,1.35
		c5.746,0.022,13.921,1.234,13.901,8.431c-0.009,2.76-0.096,5.848-3.292,6.419c-3.562,0.634-7.305-1.61-10.902-1.765
		C12.549,22.19,12.951,20.004,13.149,17.844z M27.032,40.381c-0.42,2.574-2.046,5.227-4.738,5.994
		c-1.584,0.453-6.371,0.934-7.979,0.266c-0.463-2.244-0.154-4.619-0.588-6.809c-0.579-2.926-0.385-6.006-0.385-9.024h0.385
		C18.45,31.195,28.036,34.247,27.032,40.381z"/>
	<path fill="#F5EEE2" d="M12.956,11.345c0.055,0,0.113,0,0.167,0c0.081-0.475,0.212-0.928,0.41-1.35L12.956,11.345z"/>
	<path fill="#F5EEE2" d="M76.51,40.831c-1.704,0.446-2.964,2.424-4.656,3.475c-3.455,2.139-8.305,1.507-10.594-1.973
		c-4.159-6.319,9.702-4.44,12.744-4.391c3.816,0.059,8.499,1.191,12.134-0.316c0.677-0.28-2.184-8.109-2.521-8.885
		c-1.367-3.165-3.322-6.034-6.081-8.143c-6.011-4.601-14.097-4.252-19.984,0.387c-12.437,9.804-7.38,29.124,7.927,32.417
		c3.56,0.764,7.078,0.092,10.093-1.948c1.64-1.111,3.043-2.539,4.333-4.034c0.304-0.35,5.311-6.038,4.019-6.292
		C82.075,40.767,78.35,40.35,76.51,40.831z M62.572,26.401c1.746-1.563,2.838-1.374,5.165-1.373c4.115,0,7.396,2.371,7.275,6.922
		c0.385,0.006,0.768,0.016,1.156,0.016h-1.156c0-0.006,0-0.012,0-0.016c-5.499-0.078-10.703-0.667-16.178-0.977
		C59.48,29.211,61.251,27.582,62.572,26.401z"/>
	<path fill="#F5EEE2" d="M76.167,31.966c-0.388,0-0.771-0.01-1.156-0.016c0,0.004,0,0.01,0,0.016H76.167z"/>
</g>
</svg>
