<?xml version="1.0" encoding="utf-8"?>
<!-- Generator: Adobe Illustrator 16.0.3, SVG Export Plug-In . SVG Version: 6.00 Build 0)  -->
<!DOCTYPE svg PUBLIC "-//W3C//DTD SVG 1.1//EN" "http://www.w3.org/Graphics/SVG/1.1/DTD/svg11.dtd">
<svg version="1.1" id="Capa_1" xmlns="http://www.w3.org/2000/svg" xmlns:xlink="http://www.w3.org/1999/xlink" x="0px" y="0px"
	 width="55.527px" height="59.42px" viewBox="0 0 55.527 59.42" enable-background="new 0 0 55.527 59.42" xml:space="preserve">
<path fill="#F5EEE2" d="M20.85,44.851c-1.291-1.068,0.527-3.221,1.457-3.778c-1.094-0.218-2.149-0.801-3.254-1.112
	c-1.529-0.431-3.37-0.751-4.789-1.52c-1.401-0.759-2.104-2.337-2.67-3.707c-0.748-1.805-1.343-3.49-1.588-5.452
	c-0.284-2.275-0.665-5.687,0.091-7.853c0.463-1.327,1.697-2.729,1.858-3.982c0.147-1.148-0.163-2.646-0.262-3.726
	c-0.069-0.757-0.203-2.745,0.511-3.256c0.887-0.636,3.278,0.364,4.145,0.657c0.995,0.337,2.074,0.705,2.982,1.304
	c0.29,0.191,0.544,0.335,0.812,0.542c0.247,0.192,0.698,0.824,0.946,0.921c0.625,0.245,1.8-0.392,2.569-0.454
	c1.195-0.097,2.318-0.374,3.528-0.37c1.595,0.005,3.191,0,4.786,0c0.603,0,1.274-0.074,1.85,0.07
	c0.279,0.07,0.341,0.256,0.624,0.324c0.91,0.22,0.945-0.132,1.588-0.606c2.299-1.697,4.971-1.823,7.776-1.93
	c0.847,2.145,1.276,5.032,0.484,7.226c-0.521,1.443,0.479,3.112,0.973,4.596c0.621,1.866,1.073,3.295,1.069,5.282
	c-0.007,3.533-0.333,6.74-3.097,9.196c-1.452,1.29-3.462,2.101-5.305,2.642c-1.505,0.442-3.071,0.364-4.552,0.868
	c1.38,2.431,1.185,5.703,1.185,8.527c0,1.72-0.162,3.503,0.253,5.158c0.566,2.26,1.551,1.703,3.296,0.799
	c3.253-1.684,6.231-3.849,8.986-6.204c1.129-0.965,1.797-2.515,2.52-3.82c0.799-1.442,1.599-2.928,2.405-4.369
	c2.214-3.956,3.39-7.993,3.39-12.585c0-2.23,0.301-4.711-0.083-6.911c-0.422-2.417-1.929-4.723-3.09-6.834
	c-1.261-2.293-2.839-3.796-4.741-5.571c-1.534-1.432-3.24-2.918-5.038-4.019C36.902,1.504,30.735,0,24.264,0
	c-3.354,0-6.218,0.418-9.269,1.898C11.052,3.811,7.168,5.532,4.483,9.187C1.081,13.816,0,20.324,0,25.952c0,2.845,0,5.69,0,8.535
	c0,3.233,0.979,6.294,1.93,9.374c1.083,3.511,3.238,7.328,5.492,10.22c1.687,2.165,4.373,4.725,7.192,5.185
	c1.098,0.179,2.895,0.262,3.952-0.083c0.847-0.276,2.066-0.959,2.592-1.707c0.452-0.643,0.338-1.223,0.34-2.006
	c0.003-1.176-0.248-2.25-0.371-3.369c-0.13-1.188,0.11-2.425-0.03-3.606c-1.25-0.125-2.208,0.271-3.393,0.343
	c-1.604,0.097-3.742,0.182-5.196-0.571c-1.854-0.96-1.912-3.26-2.544-4.97c-0.244-0.658-0.529-1.193-1.018-1.682
	c-0.469-0.471-1.516-0.696-1.865-1.131c-0.854-1.063,1.793-0.87,2.331-0.734c1.755,0.442,2.587,2.283,3.955,3.258
	c1.442,1.029,5.963,3.884,7.668,1.846"/>
</svg>
